<mxfile host="app.diagrams.net" agent="Mozilla/5.0 (Windows NT 10.0; Win64; x64) AppleWebKit/537.36 (KHTML, like Gecko) Chrome/140.0.0.0 Safari/537.36" version="28.2.4">
  <diagram name="Página-1" id="4iUnGPk8eX9eYoRPvFoH">
    <mxGraphModel dx="1426" dy="777" grid="1" gridSize="10" guides="1" tooltips="1" connect="1" arrows="1" fold="1" page="1" pageScale="1" pageWidth="827" pageHeight="1169" math="0" shadow="0">
      <root>
        <mxCell id="0" />
        <mxCell id="1" parent="0" />
        <mxCell id="dbXYkPXYevpdWX7WdQCM-38" value="" style="edgeStyle=orthogonalEdgeStyle;rounded=0;orthogonalLoop=1;jettySize=auto;html=1;" edge="1" parent="1" source="iD5cl9piEalMS1e9P42m-1" target="dbXYkPXYevpdWX7WdQCM-37">
          <mxGeometry relative="1" as="geometry" />
        </mxCell>
        <mxCell id="iD5cl9piEalMS1e9P42m-1" value="Inicio" style="ellipse;whiteSpace=wrap;html=1;fillColor=#6a00ff;strokeColor=#3700CC;fontColor=#ffffff;" parent="1" vertex="1">
          <mxGeometry x="354" y="60" width="119" height="90" as="geometry" />
        </mxCell>
        <mxCell id="dbXYkPXYevpdWX7WdQCM-58" value="" style="edgeStyle=orthogonalEdgeStyle;rounded=0;orthogonalLoop=1;jettySize=auto;html=1;" edge="1" parent="1" source="dbXYkPXYevpdWX7WdQCM-37" target="dbXYkPXYevpdWX7WdQCM-57">
          <mxGeometry relative="1" as="geometry" />
        </mxCell>
        <mxCell id="dbXYkPXYevpdWX7WdQCM-37" value="QuantosN = 0&lt;br&gt;Soma = 0" style="whiteSpace=wrap;html=1;fillColor=#fa6800;strokeColor=#C73500;fontColor=#000000;" vertex="1" parent="1">
          <mxGeometry x="354" y="170" width="120" height="60" as="geometry" />
        </mxCell>
        <mxCell id="dbXYkPXYevpdWX7WdQCM-56" value="" style="edgeStyle=orthogonalEdgeStyle;rounded=0;orthogonalLoop=1;jettySize=auto;html=1;" edge="1" parent="1" source="dbXYkPXYevpdWX7WdQCM-53" target="dbXYkPXYevpdWX7WdQCM-55">
          <mxGeometry relative="1" as="geometry" />
        </mxCell>
        <mxCell id="dbXYkPXYevpdWX7WdQCM-53" value="Pedir Num" style="shape=parallelogram;perimeter=parallelogramPerimeter;whiteSpace=wrap;html=1;fixedSize=1;fillColor=#e51400;strokeColor=#B20000;fontColor=#ffffff;" vertex="1" parent="1">
          <mxGeometry x="354" y="330" width="120" height="60" as="geometry" />
        </mxCell>
        <mxCell id="dbXYkPXYevpdWX7WdQCM-61" value="" style="edgeStyle=orthogonalEdgeStyle;rounded=0;orthogonalLoop=1;jettySize=auto;html=1;" edge="1" parent="1" source="dbXYkPXYevpdWX7WdQCM-55" target="dbXYkPXYevpdWX7WdQCM-60">
          <mxGeometry relative="1" as="geometry" />
        </mxCell>
        <mxCell id="dbXYkPXYevpdWX7WdQCM-55" value="Soma = Soma + Num&lt;br&gt;QuantosN = QuantosN - 1" style="whiteSpace=wrap;html=1;fillColor=#fa6800;strokeColor=#C73500;fontColor=#000000;" vertex="1" parent="1">
          <mxGeometry x="331" y="440" width="166" height="60" as="geometry" />
        </mxCell>
        <mxCell id="dbXYkPXYevpdWX7WdQCM-59" value="" style="edgeStyle=orthogonalEdgeStyle;rounded=0;orthogonalLoop=1;jettySize=auto;html=1;" edge="1" parent="1" source="dbXYkPXYevpdWX7WdQCM-57" target="dbXYkPXYevpdWX7WdQCM-53">
          <mxGeometry relative="1" as="geometry" />
        </mxCell>
        <mxCell id="dbXYkPXYevpdWX7WdQCM-57" value="Pedir QuantosN" style="shape=parallelogram;perimeter=parallelogramPerimeter;whiteSpace=wrap;html=1;fixedSize=1;fillColor=#e51400;strokeColor=#B20000;fontColor=#ffffff;" vertex="1" parent="1">
          <mxGeometry x="354" y="250" width="120" height="60" as="geometry" />
        </mxCell>
        <mxCell id="dbXYkPXYevpdWX7WdQCM-62" style="edgeStyle=orthogonalEdgeStyle;rounded=0;orthogonalLoop=1;jettySize=auto;html=1;exitX=0.5;exitY=0;exitDx=0;exitDy=0;entryX=1;entryY=0.5;entryDx=0;entryDy=0;" edge="1" parent="1" source="dbXYkPXYevpdWX7WdQCM-60" target="dbXYkPXYevpdWX7WdQCM-53">
          <mxGeometry relative="1" as="geometry">
            <Array as="points">
              <mxPoint x="635" y="360" />
            </Array>
          </mxGeometry>
        </mxCell>
        <mxCell id="dbXYkPXYevpdWX7WdQCM-63" value="Não" style="edgeLabel;html=1;align=center;verticalAlign=middle;resizable=0;points=[];" vertex="1" connectable="0" parent="dbXYkPXYevpdWX7WdQCM-62">
          <mxGeometry x="-0.7778" relative="1" as="geometry">
            <mxPoint as="offset" />
          </mxGeometry>
        </mxCell>
        <mxCell id="dbXYkPXYevpdWX7WdQCM-65" value="" style="edgeStyle=orthogonalEdgeStyle;rounded=0;orthogonalLoop=1;jettySize=auto;html=1;" edge="1" parent="1" source="dbXYkPXYevpdWX7WdQCM-60" target="dbXYkPXYevpdWX7WdQCM-64">
          <mxGeometry relative="1" as="geometry" />
        </mxCell>
        <mxCell id="dbXYkPXYevpdWX7WdQCM-68" value="Sim" style="edgeLabel;html=1;align=center;verticalAlign=middle;resizable=0;points=[];" vertex="1" connectable="0" parent="dbXYkPXYevpdWX7WdQCM-65">
          <mxGeometry x="-0.3778" y="-1" relative="1" as="geometry">
            <mxPoint as="offset" />
          </mxGeometry>
        </mxCell>
        <mxCell id="dbXYkPXYevpdWX7WdQCM-60" value="QuantosN = 0" style="rhombus;whiteSpace=wrap;html=1;fillColor=#60a917;strokeColor=#2D7600;fontColor=#ffffff;" vertex="1" parent="1">
          <mxGeometry x="570" y="405" width="130" height="130" as="geometry" />
        </mxCell>
        <mxCell id="dbXYkPXYevpdWX7WdQCM-67" value="" style="edgeStyle=orthogonalEdgeStyle;rounded=0;orthogonalLoop=1;jettySize=auto;html=1;" edge="1" parent="1" source="dbXYkPXYevpdWX7WdQCM-64" target="dbXYkPXYevpdWX7WdQCM-66">
          <mxGeometry relative="1" as="geometry" />
        </mxCell>
        <mxCell id="dbXYkPXYevpdWX7WdQCM-64" value="Escrever Soma" style="shape=parallelogram;perimeter=parallelogramPerimeter;whiteSpace=wrap;html=1;fixedSize=1;fillColor=#e51400;strokeColor=#B20000;fontColor=#ffffff;" vertex="1" parent="1">
          <mxGeometry x="575" y="570" width="120" height="60" as="geometry" />
        </mxCell>
        <mxCell id="dbXYkPXYevpdWX7WdQCM-66" value="Fim" style="ellipse;whiteSpace=wrap;html=1;fillColor=#6a00ff;strokeColor=#3700CC;fontColor=#ffffff;" vertex="1" parent="1">
          <mxGeometry x="575" y="660" width="119" height="90" as="geometry" />
        </mxCell>
      </root>
    </mxGraphModel>
  </diagram>
</mxfile>
